# xmcd
#
# Track frame offsets:
#	150
#	12877
#	29072
#	41955
#	53062
#	70332
#	81015
#	93232
#	109027
#	127142
#	137690
#	148947
#	159215
#	171295
#	181055
#	192540
#
# Disc length: 2807 seconds
#
# Revision: 2
# Processed by: cddbd v1.4PL0 Copyright (c) Steve Scherf et al.
# Submitted via: audiograbber 1.81.02
#
DISCID=e30af510
DTITLE=John Lee Hooker - Boom Boom
DYEAR=1997
DGENRE=Blues
TTITLE0=Boom Boom
TTITLE1=Process
TTITLE2=Lost A Good Girl
TTITLE3=A New Leaf
TTITLE4=Blues Before Sunrise
TTITLE5=Let's Make It
TTITLE6=I Got A Letter
TTITLE7=Thelma
TTITLE8=House Rent Boogie
TTITLE9=Keep Your Hands To Yourself
TTITLE10=What Do You Say
TTITLE11=Big Legs, Tight Skirt
TTITLE12=Everybody Rockin'
TTITLE13=Onions
TTITLE14=Wheel And Deal
TTITLE15=Sadie Mae
EXTD=
EXTT0=
EXTT1=
EXTT2=
EXTT3=
EXTT4=
EXTT5=
EXTT6=
EXTT7=
EXTT8=
EXTT9=
EXTT10=
EXTT11=
EXTT12=
EXTT13=
EXTT14=
EXTT15=
PLAYORDER=
